<svg id="Capa_1" data-name="Capa 1" xmlns="http://www.w3.org/2000/svg" xmlns:xlink="http://www.w3.org/1999/xlink" viewBox="0 0 59.56 22.17"><defs><style>.cls-1{fill:url(#Degradado_sin_nombre_5);}.cls-2{fill:url(#Degradado_sin_nombre_5-2);}.cls-3{fill:#fff;}</style><linearGradient id="Degradado_sin_nombre_5" x1="7.88" y1="22.36" x2="22.42" y2="7.82" gradientTransform="translate(30.3 30.18) rotate(-180)" gradientUnits="userSpaceOnUse"><stop offset="0" stop-color="#fff"/><stop offset="1" stop-color="#fff" stop-opacity="0.2"/></linearGradient><linearGradient id="Degradado_sin_nombre_5-2" x1="2.49" y1="13.22" x2="13.28" y2="2.43" gradientTransform="translate(15.76 15.64) rotate(180)" xlink:href="#Degradado_sin_nombre_5"/></defs><title>04</title><rect class="cls-1" x="7.88" y="7.82" width="14.54" height="14.54" transform="translate(30.05 29.99) rotate(180)"/><rect class="cls-2" x="0.25" y="0.19" width="15.26" height="15.26" rx="7.63" ry="7.63" transform="translate(15.51 15.45) rotate(-180)"/><polygon class="cls-3" points="31.43 10.6 29.8 10.6 29.8 9.42 31.29 9.42 31.29 9.07 29.8 9.07 29.8 7.92 31.4 7.92 31.4 7.58 29.44 7.58 29.44 10.95 31.43 10.95 31.43 10.6"/><path class="cls-3" d="M33,10.85a0.61,0.61,0,0,1-.63-0.37l0-.07-0.3.18,0,0a0.94,0.94,0,0,0,.94.55,0.78,0.78,0,0,0,.89-0.72A0.82,0.82,0,0,0,33,9.75c-0.36-.09-0.58-0.17-0.58-0.39A0.43,0.43,0,0,1,33,9a0.55,0.55,0,0,1,.54.32l0,0.06,0.3-.17,0,0A0.88,0.88,0,0,0,33,8.65a0.77,0.77,0,0,0-.85.72,0.81,0.81,0,0,0,.82.71c0.37,0.09.59,0.17,0.59,0.4A0.46,0.46,0,0,1,33,10.85Z" transform="translate(-0.25 -0.19)"/><path class="cls-3" d="M36.55,10.52l-0.29-.18,0,0.05a0.87,0.87,0,0,1-.79.45,0.93,0.93,0,0,1,0-1.87,0.82,0.82,0,0,1,.77.45l0,0.06,0.29-.17,0,0a1.14,1.14,0,0,0-1.07-.63,1.27,1.27,0,1,0,0,2.54,1.2,1.2,0,0,0,1.08-.62Z" transform="translate(-0.25 -0.19)"/><path class="cls-3" d="M37.9,11.19a0.94,0.94,0,0,0,.78-0.35v0.3H39V8.7H38.68V10a0.75,0.75,0,0,1-.76.87,0.59,0.59,0,0,1-.63-0.65V8.7H36.94v1.5A0.91,0.91,0,0,0,37.9,11.19Z" transform="translate(-0.25 -0.19)"/><path class="cls-3" d="M40.82,11.19a1.19,1.19,0,0,0,1.06-.55l0,0-0.3-.18,0,0.05a0.83,0.83,0,0,1-.76.39,0.89,0.89,0,0,1-.92-0.76H42V10s0,0,0-.05,0,0,0-.06a1.24,1.24,0,1,0-2.47,0A1.23,1.23,0,0,0,40.82,11.19ZM39.9,9.75A0.87,0.87,0,0,1,40.8,9a0.84,0.84,0,0,1,.84.77H39.9Z" transform="translate(-0.25 -0.19)"/><rect class="cls-3" x="42.26" y="7.44" width="0.35" height="3.51"/><path class="cls-3" d="M44.63,11.19a1.17,1.17,0,0,0,.94-0.45v0.39h0.35V8.7H45.58V9.09a1.17,1.17,0,0,0-.94-0.45A1.27,1.27,0,0,0,44.63,11.19ZM43.72,9.92a0.93,0.93,0,1,1,.93.93A0.92,0.92,0,0,1,43.72,9.92Z" transform="translate(-0.25 -0.19)"/><path class="cls-3" d="M31,13.35H30.63l-1.31,3.37h0.38L30,15.9h1.55l0.3,0.79v0h0.38L31,13.39v0Zm0.47,2.2H30.16l0.64-1.68Z" transform="translate(-0.25 -0.19)"/><path class="cls-3" d="M35.18,14.23a0.9,0.9,0,0,0-.77.41,0.8,0.8,0,0,0-.73-0.41,0.86,0.86,0,0,0-.69.32V14.28H32.64v2.44H33V15.37a0.68,0.68,0,0,1,.66-0.8,0.53,0.53,0,0,1,.54.62v1.53h0.35V15.37a0.66,0.66,0,0,1,.64-0.8,0.55,0.55,0,0,1,.56.62v1.53h0.35V15.19A0.88,0.88,0,0,0,35.18,14.23Z" transform="translate(-0.25 -0.19)"/><path class="cls-3" d="M38.88,16.22l0,0L38.61,16l0,0.05a0.83,0.83,0,0,1-.75.39,0.89,0.89,0,0,1-.92-0.75H39V15.62s0,0,0-.05,0,0,0-.06a1.24,1.24,0,1,0-2.47,0,1.23,1.23,0,0,0,1.28,1.27A1.2,1.2,0,0,0,38.88,16.22Zm-2-.88a0.87,0.87,0,0,1,.9-0.77,0.84,0.84,0,0,1,.84.77H36.9Z" transform="translate(-0.25 -0.19)"/><path class="cls-3" d="M40.63,14.59V14.25H40.57a0.85,0.85,0,0,0-.72.33v-0.3H39.51v2.44h0.35V15.37a0.7,0.7,0,0,1,.72-0.78h0.06Z" transform="translate(-0.25 -0.19)"/><circle class="cls-3" cx="40.98" cy="13.4" r="0.24"/><rect class="cls-3" x="40.81" y="14.09" width="0.35" height="2.44"/><path class="cls-3" d="M44.28,16.15l0,0L44,15.93,44,16a0.86,0.86,0,0,1-.79.45,0.93,0.93,0,0,1,0-1.87A0.82,0.82,0,0,1,44,15l0,0.06,0.29-.17,0,0a1.14,1.14,0,0,0-1.07-.63,1.27,1.27,0,1,0,0,2.54A1.2,1.2,0,0,0,44.28,16.15Z" transform="translate(-0.25 -0.19)"/><path class="cls-3" d="M44.58,15.5a1.25,1.25,0,0,0,1.26,1.27,1.17,1.17,0,0,0,.94-0.45v0.39h0.35V14.28H46.78v0.39a1.17,1.17,0,0,0-.94-0.45A1.25,1.25,0,0,0,44.58,15.5Zm2.21,0a0.93,0.93,0,1,1-.92-0.93A0.92,0.92,0,0,1,46.78,15.5Z" transform="translate(-0.25 -0.19)"/><path class="cls-3" d="M48.15,15.44a0.75,0.75,0,0,1,.76-0.87,0.59,0.59,0,0,1,.63.65v1.5h0.35v-1.5a0.91,0.91,0,0,0-1-1,0.94,0.94,0,0,0-.78.35v-0.3H47.81v2.44h0.35V15.44Z" transform="translate(-0.25 -0.19)"/><path class="cls-3" d="M52.55,16.33v0.39H52.9V14.28H52.55v0.39a1.17,1.17,0,0,0-.94-0.45,1.27,1.27,0,0,0,0,2.54A1.17,1.17,0,0,0,52.55,16.33ZM50.7,15.5a0.93,0.93,0,1,1,.93.93A0.92,0.92,0,0,1,50.7,15.5Z" transform="translate(-0.25 -0.19)"/><path class="cls-3" d="M31.49,20.42A1.06,1.06,0,0,0,30.63,20a1.17,1.17,0,0,0,0,2.34A1.06,1.06,0,0,0,31.49,22v0.36h0.33v-3.1H31.49v1.21Zm0,0.76a0.85,0.85,0,1,1-.85-0.85A0.84,0.84,0,0,1,31.49,21.19Z" transform="translate(-0.25 -0.19)"/><path class="cls-3" d="M33.44,20a1.17,1.17,0,0,0,0,2.34,1.11,1.11,0,0,0,1-.51l0,0-0.29-.17,0,0.05a0.76,0.76,0,0,1-.69.36,0.81,0.81,0,0,1-.84-0.68h1.92V21.3s0,0,0,0,0,0,0-.06A1.13,1.13,0,0,0,33.44,20Zm-0.82,1a0.79,0.79,0,0,1,.82-0.69,0.77,0.77,0,0,1,.77.69H32.62Z" transform="translate(-0.25 -0.19)"/><rect class="cls-3" x="36.14" y="18.75" width="0.36" height="3.37"/><path class="cls-3" d="M38.59,19.82a0.94,0.94,0,0,0-.78.35v-0.3H37.47v2.44h0.35V21a0.75,0.75,0,0,1,.76-0.87,0.59,0.59,0,0,1,.63.65v1.5h0.35V20.8A0.91,0.91,0,0,0,38.59,19.82Z" transform="translate(-0.25 -0.19)"/><path class="cls-3" d="M41.29,19.82a0.94,0.94,0,0,0-.78.35v-0.3H40.17v2.44h0.35V21a0.75,0.75,0,0,1,.76-0.87,0.59,0.59,0,0,1,.63.65v1.5h0.35V20.8A0.91,0.91,0,0,0,41.29,19.82Z" transform="translate(-0.25 -0.19)"/><path class="cls-3" d="M44,19.82a1.27,1.27,0,1,0,1.28,1.27A1.26,1.26,0,0,0,44,19.82Zm0.92,1.27A0.93,0.93,0,1,1,44,20.16,0.92,0.92,0,0,1,44.91,21.09Z" transform="translate(-0.25 -0.19)"/><polygon class="cls-3" points="46.32 21.67 45.48 19.68 45.1 19.68 46.13 22.08 46.14 22.12 46.5 22.12 47.5 19.76 47.53 19.68 47.16 19.68 46.32 21.67"/><path class="cls-3" d="M50.08,20.26a1.17,1.17,0,0,0-.94-0.45,1.27,1.27,0,0,0,0,2.54,1.17,1.17,0,0,0,.94-0.45v0.39h0.35V19.87H50.08v0.39Zm0,0.83a0.93,0.93,0,1,1-.92-0.93A0.92,0.92,0,0,1,50.08,21.09Z" transform="translate(-0.25 -0.19)"/><path class="cls-3" d="M53,21.57a0.87,0.87,0,0,1-.79.45,0.93,0.93,0,0,1,0-1.87,0.82,0.82,0,0,1,.77.45l0,0.06,0.29-.17,0,0a1.14,1.14,0,0,0-1.07-.63,1.27,1.27,0,1,0,0,2.54,1.2,1.2,0,0,0,1.08-.62l0,0L53,21.52Z" transform="translate(-0.25 -0.19)"/><circle class="cls-3" cx="53.71" cy="18.99" r="0.24"/><rect class="cls-3" x="53.54" y="19.68" width="0.35" height="2.44"/><polygon class="cls-3" points="56.24 18.76 55.81 18.76 55.37 19.47 55.73 19.47 56.24 18.76"/><path class="cls-3" d="M55.93,19.82a1.27,1.27,0,1,0,1.28,1.27A1.26,1.26,0,0,0,55.93,19.82Zm0.92,1.27a0.93,0.93,0,1,1-.92-0.93A0.92,0.92,0,0,1,56.86,21.09Z" transform="translate(-0.25 -0.19)"/><path class="cls-3" d="M58.85,19.82a0.94,0.94,0,0,0-.77.35v-0.3H57.72v2.44h0.35V21a0.75,0.75,0,0,1,.76-0.87,0.59,0.59,0,0,1,.63.65v1.5h0.35V20.8A0.91,0.91,0,0,0,58.85,19.82Z" transform="translate(-0.25 -0.19)"/></svg>